#!OML:ASF H:\Terrain\Patient Classification 1\Takeo\Monday\TakeoMonday.ASF
:FULLY-SPECIFIED
:DEGREES
1797
root 8.79073 17.7087 -1.58765 -10.2313 -25.8821 5.23812
lowerback 4.85257 0.677955 0.115707
upperback 2.60172 0.898221 0.515482
thorax -0.0552126 0.442016 0.420433
lowerneck -10.6407 8.49812 1.98118
upperneck 5.87053 11.8719 -8.58475
head 4.12993 5.46432 -2.1011
rclavicle 5.29264e-015 1.74931e-014
rhumerus -39.3241 -4.31949 -83.5512
rradius 26.9432
rwrist -10.5697
rhand -23.9949 15.8542
rfingers 7.12502
rthumb 2.48228 -14.1111
lclavicle 5.29264e-015 1.74931e-014
lhumerus -37.8824 21.3961 81.9725
lradius 30.6309
lwrist 26.7812
lhand -28.617 19.5241
lfingers 7.12502
lthumb -1.98182 49.4947
rfemur 10.5997 -4.872 18.7395
rtibia 15.8724
rfoot -18.3 -18.3272
rtoes 2.23538
lfemur -0.133489 -3.32347 -17.7872
ltibia 6.95302
lfoot 1.46294 24.2858
ltoes 3.56962
1798
root 8.78764 17.7079 -1.57937 -10.235 -25.9071 5.15498
lowerback 4.90091 0.618604 0.167776
upperback 2.61525 0.821145 0.496823
thorax -0.0667279 0.403961 0.375367
lowerneck -10.6497 8.59335 2.08786
upperneck 5.9317 11.981 -8.48538
head 4.15516 5.52363 -2.07688
rclavicle -2.61278e-014 1.51076e-014
rhumerus -39.406 -4.35432 -83.7554
rradius 27.1473
rwrist -10.5562
rhand -24.0918 16.0816
rfingers 7.12502
rthumb 2.38873 -13.8847
lclavicle -2.61278e-014 1.51076e-014
lhumerus -37.7747 20.8451 82.2716
lradius 31.3062
lwrist 26.7241
lhand -28.8013 18.8567
lfingers 7.12502
lthumb -2.15984 48.8255
rfemur 10.7936 -4.72531 18.8499
rtibia 15.6977
rfoot -18.436 -18.3196
rtoes 2.71352
lfemur -0.181225 -3.29168 -17.6987
ltibia 7.1936
lfoot 1.16415 24.3392
ltoes 4.05666
1799
root 8.78186 17.7087 -1.56808 -10.2515 -26.0195 5.01514
lowerback 4.93207 0.622615 0.251208
upperback 2.62423 0.830143 0.543866
thorax -0.0743868 0.408857 0.37609
lowerneck -10.3901 8.71658 1.74177
upperneck 5.84922 12.1388 -7.98625
head 4.04137 5.63022 -1.87773
rclavicle 6.73383e-014 -5.56597e-015
rhumerus -39.5458 -4.33246 -83.7824
rradius 27.3899
rwrist -10.3348
rhand -23.6799 16.1226
rfingers 7.12502
rthumb 2.78649 -13.839
lclavicle 6.73383e-014 -5.56597e-015
lhumerus -37.7096 20.2939 82.5927
lradius 31.892
lwrist 26.4631
lhand -28.6328 17.9157
lfingers 7.12502
lthumb -1.99707 47.8861
rfemur 11.0832 -4.555 19.0236
rtibia 15.3838
rfoot -18.465 -18.3237
rtoes 3.15861
lfemur -0.29981 -3.18737 -17.5397
ltibia 7.70323
lfoot 1.62194 23.9884
ltoes 1.60842
1800
root 8.78144 17.7079 -1.55975 -10.2142 -26.0398 4.84684
lowerback 4.9962 0.626333 0.370298
upperback 2.62106 0.840857 0.622227
thorax -0.112817 0.414736 0.388363
lowerneck -10.3586 8.82278 1.05373
upperneck 5.90011 12.2949 -7.11932
head 3.9589 5.73686 -1.50875
rclavicle -4.2043e-014 1.19271e-014
rhumerus -39.6628 -4.18459 -83.747
rradius 27.7161
rwrist -10.2797
rhand -23.3381 15.8961
rfingers 7.12502
rthumb 3.11655 -14.0609
lclavicle -4.2043e-014 1.19271e-014
lhumerus -37.534 19.7265 83.0015
lradius 32.4538
lwrist 26.4656
lhand -28.2917 17.8766
lfingers 7.12502
lthumb -1.66769 47.8498
rfemur 11.4045 -4.57156 19.1824
rtibia 14.8697
rfoot -18.225 -18.3694
rtoes 3.272
lfemur -0.631103 -3.17383 -17.3909
ltibia 8.55377
lfoot 1.63394 23.6857
ltoes 1.45396
1801
root 8.78268 17.7094 -1.5539 -10.1206 -25.9906 4.69409
lowerback 5.018 0.614912 0.505031
upperback 2.61754 0.831957 0.692023
thorax -0.127591 0.41102 0.384565
lowerneck -10.7811 8.78299 1.33149
upperneck 6.33927 12.2665 -7.3851
head 4.19571 5.68994 -1.60077
rclavicle -5.1684e-015 -2.38542e-015
rhumerus -39.7206 -3.8796 -83.7794
rradius 28.0559
rwrist -10.6204
rhand -23.3303 15.4928
rfingers 7.12502
rthumb 3.1241 -14.464
lclavicle -5.1684e-015 -2.38542e-015
lhumerus -37.3013 19.085 83.4884
lradius 33.0775
lwrist 26.9233
lhand -28.3779 18.2776
lfingers 7.12502
lthumb -1.75092 48.2502
rfemur 11.609 -4.65771 19.3115
rtibia 14.4322
rfoot -18.0227 -18.3976
rtoes 3.43373
lfemur -0.992866 -3.22248 -17.2472
ltibia 9.22351
lfoot 1.29243 23.5713
ltoes 1.9509
1802
root 8.78131 17.7136 -1.54816 -9.79976 -26.0845 4.33697
lowerback 4.90651 0.612956 0.87524
upperback 2.53739 0.845649 0.781633
thorax -0.143669 0.420685 0.268979
lowerneck -11.0001 8.70729 1.82576
upperneck 6.6481 12.1797 -7.96021
head 4.39108 5.61103 -1.83469
rclavicle 5.13486e-014 -1.27222e-014
rhumerus -39.7855 -3.71968 -83.8467
rradius 28.2694
rwrist -10.7981
rhand -23.4249 15.228
rfingers 7.12502
rthumb 3.03279 -14.7302
lclavicle 5.13486e-014 -1.27222e-014
lhumerus -37.2351 18.4153 83.8432
lradius 33.769
lwrist 27.264
lhand -28.4746 18.5386
lfingers 7.12502
lthumb -1.84427 48.5104
rfemur 11.5949 -4.58266 19.713
rtibia 14.0576
rfoot -17.8026 -18.5669
rtoes 3.04562
lfemur -1.45778 -3.15301 -16.8464
ltibia 9.80442
lfoot 0.576852 23.5518
ltoes 2.0826
1803
root 8.77907 17.7179 -1.54174 -9.53664 -26.184 4.17657
lowerback 4.79326 0.647375 1.04084
upperback 2.40206 0.899567 0.825919
thorax -0.21749 0.44867 0.219282
lowerneck -10.8711 8.695 1.89926
upperneck 6.69202 12.1604 -7.99657
head 4.38938 5.60364 -1.86256
rclavicle -2.9271e-014 -2.14687e-014
rhumerus -39.9324 -3.7953 -83.8274
rradius 28.4304
rwrist -10.7139
rhand -23.4744 15.0514
rfingers 7.12502
rthumb 2.98493 -14.9075
lclavicle -2.9271e-014 -2.14687e-014
lhumerus -37.1164 17.8524 84.0953
lradius 34.1939
lwrist 27.1071
lhand -28.3423 18.8036
lfingers 7.12502
lthumb -1.71651 48.7764
rfemur 11.5603 -4.5412 19.9017
rtibia 13.6742
rfoot -17.5123 -18.6184
rtoes 2.21357
lfemur -1.92945 -3.04554 -16.6588
ltibia 10.3953
lfoot 0.279206 23.358
ltoes 0.671238
1804
root 8.77164 17.7229 -1.54105 -9.25356 -26.2986 3.85525
lowerback 4.75608 0.677537 1.21885
upperback 2.29664 0.949226 0.94687
thorax -0.303828 0.473784 0.240729
lowerneck -10.7837 8.80651 2.14065
upperneck 6.785 12.296 -8.10082
head 4.43176 5.67015 -1.91952
rclavicle -1.83503e-014 7.15625e-015
rhumerus -40.0306 -3.77286 -83.7933
rradius 28.5873
rwrist -10.7293
rhand -23.5695 15.0352
rfingers 7.12502
rthumb 2.89308 -14.925
lclavicle -1.83503e-014 7.15625e-015
lhumerus -36.9271 17.6035 84.2852
lradius 34.4966
lwrist 26.7366
lhand -28.186 19.2575
lfingers 7.12502
lthumb -1.56553 49.2315
rfemur 11.4504 -4.332 20.335
rtibia 13.5412
rfoot -17.4736 -18.7178
rtoes 2.16048
lfemur -2.20947 -2.88081 -16.2871
ltibia 10.6235
lfoot 2.72566 22.1724
ltoes -8.73789
1805
root 8.76589 17.7259 -1.54361 -9.05713 -26.3555 3.67124
lowerback 4.74816 0.678722 1.30393
upperback 2.26914 0.955069 1.00757
thorax -0.327181 0.476813 0.25488
lowerneck -10.9883 8.88809 2.25712
upperneck 6.99928 12.4045 -8.07846
head 4.54208 5.71513 -1.90711
rclavicle 4.13721e-015 1.66979e-014
rhumerus -39.9307 -3.66926 -83.8461
rradius 28.7199
rwrist -10.8657
rhand -23.646 15.0466
rfingers 7.12502
rthumb 2.81925 -14.9145
lclavicle 4.13721e-015 1.66979e-014
lhumerus -36.8165 17.6436 84.3948
lradius 35.0605
lwrist 26.3103
lhand -27.98 19.4788
lfingers 7.12502
lthumb -1.36664 49.4542
rfemur 11.2417 -4.10794 20.6333
rtibia 13.6582
rfoot -17.5133 -18.9676
rtoes 2.49688
lfemur -2.32803 -2.64754 -16.0563
ltibia 10.5419
lfoot 0.646794 23.116
ltoes 0.0754475
1806
root 8.76634 17.7234 -1.53766 -9.35964 -26.3021 4.40948
lowerback 4.72781 0.716992 0.726189
upperback 2.29845 0.979926 0.756556
thorax -0.29133 0.486911 0.320566
lowerneck -11.1932 8.79563 2.19747
upperneck 7.102 12.2804 -7.93918
head 4.58779 5.65181 -1.85657
rclavicle 3.55079e-014 -1.59028e-015
rhumerus -39.8757 -3.69545 -83.9317
rradius 28.902
rwrist -10.974
rhand -23.5863 15.2154
rfingers 7.12502
rthumb 2.87691 -14.7449
lclavicle 3.55079e-014 -1.59028e-015
lhumerus -36.6977 17.3573 84.563
lradius 35.7746
lwrist 26.3088
lhand -28.2148 18.1332
lfingers 7.12502
lthumb -1.59334 48.107
rfemur 11.1836 -4.08074 19.8606
rtibia 13.8072
rfoot -17.5864 -18.9099
rtoes 2.68128
lfemur -2.25995 -2.60055 -16.8207
ltibia 10.465
lfoot 0.264937 23.2917
ltoes 1.21234
1807
root 8.7678 17.7205 -1.5312 -9.51379 -26.3598 4.75139
lowerback 4.73046 0.764647 0.559055
upperback 2.29095 1.03562 0.578901
thorax -0.300286 0.514588 0.229333
lowerneck -11.245 8.65657 2.10046
upperneck 7.1565 12.0876 -7.72751
head 4.58335 5.5641 -1.79259
rclavicle 4.04154e-014 1.03368e-014
rhumerus -39.8635 -3.92786 -83.982
rradius 29.0129
rwrist -10.8941
rhand -23.4813 15.8658
rfingers 7.12502
rthumb 2.97832 -14.0931
lclavicle 4.04154e-014 1.03368e-014
lhumerus -36.598 16.4978 84.8741
lradius 36.4405
lwrist 26.8882
lhand -28.7897 16.7114
lfingers 7.12502
lthumb -2.14858 46.6803
rfemur 11.1546 -3.94973 19.5242
rtibia 13.9415
rfoot -17.7314 -18.8304
rtoes 2.64011
lfemur -2.14077 -2.53581 -17.1863
ltibia 10.3837
lfoot 0.825309 23.1499
ltoes -1.42972
